<?xml version="1.0" encoding="UTF-8"?>
<svg width="165px" height="39px" viewBox="0 0 165 39" version="1.1" xmlns="http://www.w3.org/2000/svg" xmlns:xlink="http://www.w3.org/1999/xlink">
    <!-- Generator: Sketch 53.2 (72643) - https://sketchapp.com -->
    <title>Fill 457</title>
    <desc>Created with Sketch.</desc>
    <g id="Symbols" stroke="none" stroke-width="1" fill="none" fill-rule="evenodd">
        <g id="Block:-Separator-Style-1" transform="translate(-245.000000, -48.000000)" fill="#BCD0C7">
            <path d="M351.533591,145.861235 C351.298782,145.861235 351.062468,145.797913 350.851742,145.660717 C337.574504,137.091238 306.146237,110.277692 310.743073,97.8169686 C311.432448,95.9474832 312.662184,95.2268268 313.571316,94.9524346 C317.532963,93.7553609 323.631973,98.2225263 330.096744,102.95353 C334.129135,105.902493 340.225135,110.366643 341.745372,109.471099 C341.873313,109.397224 342.494954,108.87407 342.150267,105.97486 C341.167381,97.7219867 334.354913,92.8975083 327.142065,87.7895919 C319.506261,82.3816532 310.851446,76.2545657 308.178237,65.0708219 C307.121597,60.6458707 307.366942,58.1944326 308.97448,57.1164632 C311.659731,55.323868 316.392033,58.7703547 322.945609,63.53905 C329.401348,68.2383934 337.437532,74.0835505 341.081585,72.1793892 C341.89288,71.7572473 342.061461,71.2823377 342.117153,70.9159789 C342.704175,67.1182099 333.784448,58.1522184 325.161242,49.4817263 C317.91227,42.1982716 310.417953,34.6630395 305.839179,27.8590174 C302.527772,22.9395572 301.660785,20.2363417 302.846871,18.5296824 C304.403233,16.2968536 308.348323,17.2587339 314.319393,18.7151233 C319.567973,19.9951177 326.098972,21.5932262 331.048021,20.6509453 C332.551701,20.3690148 332.906925,19.7207255 333.043896,19.2578771 C334.613805,13.9434127 319.358753,-3.16840887 309.374859,-12.7073071 C308.870622,-13.1882473 308.85256,-13.9873015 309.332714,-14.4923641 C309.814373,-14.9944114 310.612122,-15.0155185 311.114853,-14.5345783 C313.872353,-11.9007147 337.979399,11.4452375 335.459719,19.9755183 C335.116536,21.1409313 334.151713,22.635012 331.514628,23.1325363 C326.032744,24.1728144 319.208234,22.5053541 313.723339,21.1665614 C310.642225,20.4172596 305.485461,19.155357 304.914996,19.9740106 C304.886397,20.0132095 304.273787,21.0173041 307.929882,26.4493652 C312.371683,33.0528699 319.78171,40.4991507 326.946391,47.7011922 C338.381283,59.1955119 345.351796,66.4849971 344.608234,71.3019372 C344.465242,72.2351722 343.936922,73.5347661 342.246599,74.4182486 C337.210249,77.0460817 329.207179,71.2160012 321.463002,65.581915 C317.534468,62.7203963 311.596513,58.3843964 310.374302,59.2181266 C310.366776,59.2226495 309.522368,59.8483241 310.630184,64.4813309 C313.082131,74.7423933 320.969301,80.326727 328.597579,85.728635 C336.28155,91.1682344 343.538048,96.3078114 344.65339,105.676345 C344.790362,106.835728 345.210308,110.365135 343.017253,111.65116 C340.210083,113.289975 335.7156,110.18874 328.609621,104.991872 C323.460382,101.222749 317.051304,96.5354665 314.301331,97.367689 C313.959653,97.4717168 313.464448,97.720479 313.107719,98.6914053 C309.54043,108.361469 336.781271,133.576907 352.216945,143.536439 C352.802462,143.914859 352.971043,144.695821 352.593242,145.282297 C352.352412,145.657702 351.946012,145.861235 351.533591,145.861235" id="Fill-457" transform="translate(327.568448, 65.489380) rotate(-84.000000) translate(-327.568448, -65.489380) "></path>
        </g>
    </g>
</svg>