<?xml version="1.0" encoding="UTF-8"?>
<svg width="24px" height="20px" viewBox="0 0 24 20" version="1.1" xmlns="http://www.w3.org/2000/svg" xmlns:xlink="http://www.w3.org/1999/xlink">
    <!-- Generator: Sketch 53.2 (72643) - https://sketchapp.com -->
    <title>meetup</title>
    <desc>Created with Sketch.</desc>
    <g id="Mockups" stroke="none" stroke-width="1" fill="none" fill-rule="evenodd">
        <g id="Home" transform="translate(-1271.000000, -6866.000000)" fill="#FFFFFF" fill-rule="nonzero">
            <g id="Group-Copy" transform="translate(0.000000, 6764.000000)">
                <g id="Group-9" transform="translate(392.000000, 0.000000)">
                    <g id="Group-8" transform="translate(675.000000, 87.000000)">
                        <g id="Group-4" transform="translate(71.000000, 13.000000)">
                            <path d="M156.978,20.238 C156.674,18.307 153.104,19.794 152.882,17.679 C152.569,14.681 157.032,8.22 156.679,5.707 C156.366,3.452 154.838,2.977 153.514,2.951 C152.23,2.931 151.891,3.133 151.456,3.386 C151.203,3.532 150.844,3.821 150.344,3.345 C150.01,3.027 149.787,2.809 149.439,2.526 C149.257,2.384 148.973,2.202 148.494,2.131 C148.018,2.06 147.396,2.131 147.002,2.298 C146.607,2.47 146.3,2.764 145.976,3.047 C145.653,3.33 144.829,4.245 144.065,3.906 C143.73,3.761 142.607,3.2 141.793,2.851 C140.23,2.174 137.971,3.271 137.157,4.717 C135.944,6.866 133.557,15.32 133.193,16.432 C132.384,18.934 134.225,20.972 136.702,20.856 C137.754,20.805 138.452,20.426 139.114,19.218 C139.498,18.525 143.093,9.131 143.362,8.675 C143.559,8.352 144.206,7.922 144.752,8.2 C145.303,8.483 145.414,9.069 145.333,9.621 C145.197,10.516 142.664,16.25 142.562,16.896 C142.4,17.999 142.921,18.61 144.069,18.67 C144.853,18.711 145.636,18.433 146.253,17.26 C146.602,16.608 150.602,8.594 150.955,8.058 C151.345,7.472 151.658,7.279 152.058,7.3 C152.367,7.315 152.857,7.396 152.736,8.316 C152.614,9.221 149.393,15.096 149.06,16.537 C148.604,18.464 149.662,20.411 151.401,21.265 C152.513,21.811 157.371,22.741 156.978,20.238 Z" id="meetup"></path>
                        </g>
                    </g>
                </g>
            </g>
        </g>
    </g>
</svg>