<?xml version="1.0" encoding="UTF-8"?>
<svg width="24px" height="20px" viewBox="0 0 24 20" version="1.1" xmlns="http://www.w3.org/2000/svg" xmlns:xlink="http://www.w3.org/1999/xlink">
    <!-- Generator: Sketch 53.2 (72643) - https://sketchapp.com -->
    <title>twitter</title>
    <desc>Created with Sketch.</desc>
    <g id="Mockups" stroke="none" stroke-width="1" fill="none" fill-rule="evenodd">
        <g id="Home" transform="translate(-1138.000000, -6866.000000)" fill="#FFFFFF" fill-rule="nonzero">
            <g id="Group-Copy" transform="translate(0.000000, 6764.000000)">
                <g id="Group-9" transform="translate(392.000000, 0.000000)">
                    <g id="Group-8" transform="translate(675.000000, 87.000000)">
                        <g id="Group-4" transform="translate(71.000000, 13.000000)">
                            <path d="M23.954,4.569 C23.069,4.958 22.124,5.223 21.129,5.344 C22.143,4.733 22.923,3.77 23.292,2.621 C22.341,3.176 21.287,3.58 20.165,3.805 C19.269,2.846 17.992,2.246 16.574,2.246 C13.857,2.246 11.654,4.449 11.654,7.163 C11.654,7.553 11.699,7.928 11.781,8.287 C7.691,8.094 4.066,6.13 1.64,3.161 C1.213,3.883 0.974,4.722 0.974,5.636 C0.974,7.346 1.844,8.849 3.162,9.732 C2.355,9.706 1.596,9.484 0.934,9.116 L0.934,9.177 C0.934,11.562 2.627,13.551 4.88,14.004 C4.467,14.115 4.031,14.175 3.584,14.175 C3.27,14.175 2.969,14.145 2.668,14.089 C3.299,16.042 5.113,17.466 7.272,17.506 C5.592,18.825 3.463,19.611 1.17,19.611 C0.78,19.611 0.391,19.588 0,19.544 C2.189,20.938 4.768,21.753 7.557,21.753 C16.611,21.753 21.556,14.257 21.556,7.767 C21.556,7.558 21.556,7.347 21.541,7.137 C22.502,6.448 23.341,5.577 24.001,4.589 L23.954,4.569 Z" id="twitter"></path>
                        </g>
                    </g>
                </g>
            </g>
        </g>
    </g>
</svg>