<?xml version="1.0" encoding="UTF-8"?>
<svg width="24px" height="24px" viewBox="0 0 24 24" version="1.1" xmlns="http://www.w3.org/2000/svg" xmlns:xlink="http://www.w3.org/1999/xlink">
    <!-- Generator: Sketch 53.2 (72643) - https://sketchapp.com -->
    <title>wordpress</title>
    <desc>Created with Sketch.</desc>
    <g id="Mockups" stroke="none" stroke-width="1" fill="none" fill-rule="evenodd">
        <g id="Home" transform="translate(-1316.000000, -6864.000000)" fill="#FFFFFF" fill-rule="nonzero">
            <g id="Group-Copy" transform="translate(0.000000, 6764.000000)">
                <g id="Group-9" transform="translate(392.000000, 0.000000)">
                    <g id="Group-8" transform="translate(675.000000, 87.000000)">
                        <g id="Group-4" transform="translate(71.000000, 13.000000)">
                            <path d="M199.469,6.825 C200.309,8.362 200.787,10.125 200.787,12 C200.787,15.979 198.631,19.456 195.424,21.325 L198.719,11.798 C199.334,10.258 199.539,9.027 199.539,7.934 C199.539,7.529 199.513,7.154 199.469,6.824 L199.469,6.825 Z M191.488,6.929 C192.135,6.899 192.72,6.824 192.72,6.824 C193.302,6.749 193.234,5.894 192.653,5.925 C192.653,5.925 190.898,6.06 189.773,6.06 C188.709,6.06 186.923,5.91 186.923,5.91 C186.338,5.88 186.262,6.765 186.848,6.795 C186.848,6.795 187.388,6.856 187.973,6.885 L189.653,11.49 L187.283,18.57 L183.354,6.9 C184.003,6.87 184.588,6.8 184.588,6.8 C185.173,6.725 185.104,5.87 184.523,5.904 C184.523,5.904 182.777,6.042 181.649,6.042 C181.449,6.042 181.211,6.034 180.959,6.027 C182.911,3.15 186.235,1.215 190,1.215 C192.809,1.215 195.365,2.287 197.286,4.048 C197.24,4.045 197.195,4.039 197.145,4.039 C196.085,4.039 195.333,4.962 195.333,5.953 C195.333,6.843 195.846,7.596 196.393,8.484 C196.804,9.204 197.283,10.127 197.283,11.461 C197.283,12.376 196.929,13.455 196.462,14.94 L195.387,18.525 L191.487,6.915 L191.488,6.929 Z M190,22.784 C188.941,22.784 187.919,22.631 186.952,22.347 L190.189,12.941 L193.504,22.028 C193.528,22.081 193.554,22.129 193.582,22.177 C192.462,22.57 191.257,22.786 190,22.786 L190,22.784 Z M179.211,12 C179.211,10.436 179.547,8.95 180.146,7.61 L185.29,21.709 C181.694,19.96 179.212,16.271 179.211,12 L179.211,12 Z M190,0 C183.385,0 178,5.385 178,12 C178,18.615 183.385,24 190,24 C196.615,24 202,18.615 202,12 C202,5.385 196.615,0 190,0 L190,0 Z" id="wordpress"></path>
                        </g>
                    </g>
                </g>
            </g>
        </g>
    </g>
</svg>