<?xml version="1.0" encoding="UTF-8"?>
<svg width="24px" height="18px" viewBox="0 0 24 18" version="1.1" xmlns="http://www.w3.org/2000/svg" xmlns:xlink="http://www.w3.org/1999/xlink">
    <!-- Generator: Sketch 53.2 (72643) - https://sketchapp.com -->
    <title>youtube</title>
    <desc>Created with Sketch.</desc>
    <g id="Mockups" stroke="none" stroke-width="1" fill="none" fill-rule="evenodd">
        <g id="Home" transform="translate(-1227.000000, -6867.000000)" fill="#FFFFFF" fill-rule="nonzero">
            <g id="Group-Copy" transform="translate(0.000000, 6764.000000)">
                <g id="Group-9" transform="translate(392.000000, 0.000000)">
                    <g id="Group-8" transform="translate(675.000000, 87.000000)">
                        <g id="Group-4" transform="translate(71.000000, 13.000000)">
                            <path d="M110.407,4.117 C108.537,3.616 101.011,3.616 101.011,3.616 C101.011,3.616 93.504,3.606 91.615,4.117 C90.6016568,4.39980902 89.809809,5.19165677 89.527,6.205 C89.1725206,8.11951056 88.9977605,10.0629628 89.005,12.01 C88.9991291,13.9496902 89.1738834,15.8857136 89.527,17.793 C89.809809,18.8063432 90.6016568,19.598191 91.615,19.881 C93.483,20.383 101.011,20.383 101.011,20.383 C101.011,20.383 108.517,20.383 110.407,19.881 C111.420343,19.598191 112.212191,18.8063432 112.495,17.793 C112.840739,15.8850228 113.008128,13.949005 112.995,12.01 C113.009496,10.0636506 112.842102,8.12020397 112.495,6.205 C112.212191,5.19165677 111.420343,4.39980902 110.407,4.117 Z M98.609,15.601 L98.609,8.408 L104.873,12.01 L98.609,15.601 Z" id="youtube"></path>
                        </g>
                    </g>
                </g>
            </g>
        </g>
    </g>
</svg>